<?xml version="1.0" encoding="UTF-8"?>
<svg id="Logo" xmlns="http://www.w3.org/2000/svg" version="1.1" viewBox="0 0 1190.55 841.89">
  <!-- Generator: Adobe Illustrator 29.8.2, SVG Export Plug-In . SVG Version: 2.1.1 Build 3)  -->
  <defs>
    <style>
      .st0 {
        fill: #951b81;
      }

      .st1 {
        fill: #575756;
      }

      .st2 {
        fill: #fd0;
      }
    </style>
  </defs>
  <path class="st0" d="M302.36,354.98h-29.37c-1.62,0-2.51.89-2.51,2.51v92.21c0,1.62.89,2.51,2.51,2.51h29.37c16.7,0,27.5-10.67,27.5-27.19v-2.27c0-9.65-4.91-14.13-11.85-19.38-.11-.11-.22-.2-.32-.29-.08-.07-.19-.16-.22-.2.23-.24.9-.66,1.46-1.01,1.52-.95,3.82-2.39,5.73-4.85,3.36-4.24,5.21-8.92,5.21-13.19v-1.67c0-16.52-10.79-27.19-27.5-27.19ZM282.62,408.67c0-.35.07-.45.06-.45,0,0,.1-.07.45-.07h19.23c8.61,0,15.35,6.61,15.35,15.05v3.18c0,8.52-6.74,15.2-15.35,15.2h-19.23c-.34,0-.44-.06-.45-.06,0,0-.07-.1-.07-.45v-32.4ZM302.36,397.53h-19.23c-.34,0-.44-.06-.45-.06,0,0-.07-.1-.07-.45v-30.89c0-.35.07-.45.06-.45,0,0,.1-.07.45-.07h19.23c8.61,0,15.35,6.61,15.35,15.05v1.51c0,8.75-6.6,15.35-15.35,15.35Z"/>
  <path class="st0" d="M394.42,383.3h-7.12c-1.62,0-2.51.89-2.51,2.51v40.58c0,8.52-6.74,15.2-15.35,15.2s-15.05-6.82-15.05-15.2v-40.58c0-1.62-.89-2.51-2.51-2.51h-7.12c-1.62,0-2.51.89-2.51,2.51v40.58c0,14.73,11.04,25.83,25.68,25.83,5.2,0,10.03-1.76,13.27-4.83.89-.89,1.65-1.74,2.32-2.5.98-1.11,2.1-2.36,2.56-2.36.06.02.23.22.23.67v6.51c0,1.62.89,2.51,2.51,2.51h5.6c1.62,0,2.51-.89,2.51-2.51v-63.9c0-1.62-.89-2.51-2.51-2.51Z"/>
  <path class="st0" d="M442.42,383.3h-11.05c-.34,0-.44-.07-.45-.07,0,0-.07-.1-.07-.45v-11.21c0-1.53-.99-2.51-2.51-2.51h-2.63l-1.44.62-17.53,18.46v3.28c0,1.62.89,2.51,2.51,2.51h8.78c.34,0,.44.06.45.06,0,0,.07.1.07.45v33.46c0,7.06,2.62,13.62,7.38,18.49,4.47,4.57,10.42,7.19,16.33,7.19,2.2,0,2.67-1.37,2.67-2.51v-5.91c0-1.71-1.24-2.2-1.75-2.4-1.08-.56-2.1-1.05-3.05-1.51-2.81-1.36-5.03-2.43-6.13-3.94-2.15-3-3.15-6-3.15-9.41v-33.46c0-.34.07-.45.06-.45,0,0,.1-.07.45-.07h11.05c1.62,0,2.51-.89,2.51-2.51v-5.6c0-1.62-.89-2.51-2.51-2.51Z"/>
  <path class="st0" d="M508.44,441.59h-32.25c-.46,0-.64-.12-.67-.21,0-.06.07-.24.12-.38.03-.08.06-.16.09-.25l32.23-53.58c.07-.14.41-.85.41-1.51,0-1.07-.93-2.21-2.67-2.21h-46.79c-1.62,0-2.51.89-2.51,2.51v5.6c0,1.62.89,2.51,2.51,2.51h29.07c.46,0,.64.12.67.21,0,.09-.08.38-.16.55l-31.92,53.56c-.47.71-.47,1.25-.47,1.62,0,.52.19,2.21,2.67,2.21h49.66c1.62,0,2.51-.89,2.51-2.51v-5.6c0-1.46-1.06-2.51-2.51-2.51Z"/>
  <path class="st0" d="M651.98,383.3c-5.45,0-10.07,1.38-13.35,4.01-2.05,1.69-3.54,3.12-4.62,4.17-.6.58-1.21,1.17-1.55,1.42-.36-.27-1.02-.9-1.66-1.52-1.14-1.1-2.7-2.61-4.82-4.37-2.92-2.43-6.65-3.71-10.78-3.71-5.8,0-8.87,2.48-12.11,5.11-.35.29-.71.57-1.09.88-.59.49-1.12.94-1.61,1.35-1.03.87-2.18,1.85-2.65,2.03-.07-.12-.16-.37-.16-.79v-6.06c0-1.62-.89-2.51-2.51-2.51h-5.6c-1.62,0-2.51.89-2.51,2.51v63.9c0,1.62.89,2.51,2.51,2.51h7.27c1.62,0,2.51-.89,2.51-2.51v-40.73c0-7.6,6.63-15.05,13.38-15.05s13.69,7.45,13.69,15.05v40.73c0,1.62.89,2.51,2.51,2.51h7.27c1.62,0,2.51-.89,2.51-2.51v-40.73c0-7.45,6.75-15.05,13.38-15.05s13.69,7.45,13.69,15.05v40.73c0,1.62.89,2.51,2.51,2.51h7.27c1.62,0,2.51-.89,2.51-2.51v-40.73c0-14.88-10.93-25.68-25.98-25.68Z"/>
  <rect class="st0" x="696.41" y="383.3" width="12.3" height="68.92" rx="2.51" ry="2.51"/>
  <path class="st0" d="M702.41,353.32c-4.07,0-7.51,3.51-7.51,7.66,0,4.45,3.23,7.81,7.51,7.81s7.81-3.58,7.81-7.81-3.36-7.66-7.81-7.66Z"/>
  <path class="st0" d="M751.77,442.87c-1.08-.56-2.1-1.05-3.05-1.51-2.81-1.36-5.03-2.43-6.13-3.94-2.15-3-3.15-6-3.15-9.41v-68.44c0-1.62-.89-2.51-2.51-2.51h-7.27c-1.62,0-2.51.89-2.51,2.51v68.44s0,.01,0,.02c0,7.05,2.63,13.61,7.38,18.47,4.47,4.57,10.42,7.19,16.33,7.19,2.2,0,2.67-1.37,2.67-2.51v-5.91c0-1.71-1.24-2.2-1.75-2.4Z"/>
  <path class="st0" d="M546.74,381.78c-7.92,0-14.59,2.81-19.81,8.34-4.62,4.93-7.39,11.42-7.39,17.34v20.92c0,6.96,2.58,13.43,7.28,18.23,3.65,3.73,8.31,6.14,13.11,6.86,1.1.18,2.22.27,3.33.27,2.2,0,2.67-1.37,2.67-2.51v-5.91c0-1.71-1.24-2.2-1.75-2.4-1.08-.56-2.1-1.05-3.05-1.51-2.81-1.36-5.03-2.43-6.13-3.94-2.15-3-3.15-6-3.15-9.41h-.15v-8.33c0-.34.07-.45.07-.45,0,0,.1-.07.45-.07h39.52c1.62,0,2.51-.89,2.51-2.51v-9.24c0-13.92-12.59-25.68-27.5-25.68ZM531.69,407.46c0-8.58,6.47-15.05,15.05-15.05s15.2,6.75,15.2,15.05v2.12c0,.35-.07.45-.07.45,0,0-.1.07-.45.07h-29.22c-.34,0-.44-.06-.45-.06,0,0-.07-.1-.07-.45v-2.12Z"/>
  <path class="st0" d="M825.04,381.78c-7.92,0-14.59,2.81-19.81,8.34-4.62,4.93-7.39,11.42-7.39,17.34v20.92c0,6.96,2.58,13.43,7.28,18.23,4.41,4.5,10.27,7.09,16.1,7.09,2.18,0,2.64-1.35,2.64-2.49v-5.82c0-1.69-1.23-2.18-1.73-2.38-1.06-.55-2.06-1.03-3-1.49-2.77-1.34-4.95-2.39-6.04-3.87-2.11-2.96-3.1-5.9-3.1-9.26v-8.66c0-.34.07-.45.07-.45,0,0,.1-.07.45-.07h39.52c1.62,0,2.51-.89,2.51-2.51v-9.24c0-13.92-12.59-25.68-27.5-25.68ZM809.99,407.46c0-8.58,6.47-15.05,15.05-15.05s15.2,6.75,15.2,15.05v2.12c0,.35-.07.45-.07.45,0,0-.1.07-.45.07h-29.22c-.34,0-.44-.06-.45-.06,0,0-.07-.1-.07-.45v-2.12Z"/>
  <path class="st0" d="M787.51,442.87c-1.08-.56-2.1-1.05-3.05-1.51-2.81-1.36-5.03-2.43-6.13-3.94-2.15-3-3.15-6-3.15-9.41v-68.44c0-1.62-.89-2.51-2.51-2.51h-7.27c-1.62,0-2.51.89-2.51,2.51v68.44s0,.01,0,.02c0,7.05,2.63,13.61,7.38,18.47,4.47,4.57,10.42,7.19,16.33,7.19,2.2,0,2.67-1.37,2.67-2.51v-5.91c0-1.71-1.24-2.2-1.75-2.4Z"/>
  <path class="st0" d="M893.94,378.78h-2.73c-14.9,0-26.13,11.04-26.13,25.68v46.04c0,1.62.89,2.51,2.51,2.51h7.27c1.62,0,2.51-.89,2.51-2.51v-46.04c0-8.3,6.82-15.05,15.2-15.05s15.2,6.75,15.2,15.05v46.04c0,1.62.89,2.51,2.51,2.51h7.27c1.62,0,2.51-.89,2.51-2.51v-46.04c0-14.64-11.24-25.68-26.13-25.68Z"/>
  <g>
    <path class="st1" d="M375.9,501.37c-.69-.69-1.75-1.52-2.87-2.05-1.16-.53-2.51-.86-3.8-.86-5.08,0-8.85,4.09-8.85,9.18,0,5.97,4.85,8.98,8.88,8.98,1.49,0,2.94-.43,4.09-1.02,1.25-.63,2.14-1.45,2.54-1.85v3.04c-2.44,1.75-4.98,2.15-6.63,2.15-6.54,0-11.39-4.95-11.39-11.32s4.92-11.45,11.52-11.45c1.32,0,3.86.17,6.5,2.18v3.04Z"/>
    <path class="st1" d="M387.21,496.51c1.49,0,3.7.1,5.35,1.22,1.29.86,2.41,2.54,2.41,4.88,0,3.37-2.21,5.84-5.54,6.07l7,9.83h-2.97l-6.7-9.64h-.63v9.64h-2.44v-22.01h3.53ZM386.12,506.71h1.55c3.04,0,4.85-1.45,4.85-4.03,0-1.22-.36-2.44-1.75-3.23-.99-.56-2.11-.63-3.17-.63h-1.49v7.89Z"/>
    <path class="st1" d="M414.97,498.82h-8.98v6.54h8.71v2.31h-8.71v8.55h8.98v2.31h-11.42v-22.01h11.42v2.31ZM404.6,490.9l2.31-1.49,4.16,4.29-1.42,1.06-5.05-3.86Z"/>
    <path class="st1" d="M439.59,501.37c-.69-.69-1.75-1.52-2.87-2.05-1.16-.53-2.51-.86-3.8-.86-5.08,0-8.85,4.09-8.85,9.18,0,5.97,4.85,8.98,8.88,8.98,1.49,0,2.94-.43,4.09-1.02,1.25-.63,2.14-1.45,2.54-1.85v3.04c-2.44,1.75-4.98,2.15-6.63,2.15-6.54,0-11.39-4.95-11.39-11.32s4.92-11.45,11.52-11.45c1.32,0,3.86.17,6.5,2.18v3.04Z"/>
    <path class="st1" d="M449.82,505.46h11.29v-8.94h2.44v22.01h-2.44v-10.76h-11.29v10.76h-2.44v-22.01h2.44v8.94Z"/>
    <path class="st1" d="M483.94,498.82h-8.98v6.54h8.71v2.31h-8.71v8.55h8.98v2.31h-11.42v-22.01h11.42v2.31Z"/>
    <path class="st1" d="M501.56,500.87c-.3-.59-.79-1.25-1.29-1.65-.43-.33-1.22-.76-2.48-.76-2.18,0-3.7,1.35-3.7,3.4,0,.86.23,1.35.83,1.91.66.66,1.49,1.02,2.31,1.39l2.11.92c1.29.56,2.47,1.15,3.4,2.08,1.12,1.12,1.58,2.41,1.58,3.99,0,4.06-3,6.77-6.96,6.77-1.45,0-3.27-.3-4.79-1.78-1.09-1.06-1.75-2.58-2.05-3.89l2.38-.66c.17,1.15.69,2.14,1.32,2.8.96.96,2.05,1.22,3.17,1.22,3,0,4.42-2.15,4.42-4.36,0-.99-.3-1.85-1.09-2.58-.63-.59-1.49-.99-2.64-1.52l-1.98-.92c-.86-.4-1.95-.86-2.94-1.81-.96-.92-1.52-1.95-1.52-3.6,0-3.4,2.61-5.68,6.17-5.68,1.35,0,2.44.26,3.53.99.89.59,1.65,1.48,2.15,2.44l-1.95,1.29Z"/>
    <path class="st1" d="M540.04,510.47c-.59.82-1.45,1.88-2.8,3.27l3.7,4.79h-3.04l-2.38-3.07c-1.91,1.91-4.59,3.47-7.1,3.47-3.6,0-6.37-2.61-6.37-6.11,0-2.38,1.25-3.83,1.98-4.55,1.16-1.16,3.23-2.44,3.7-2.74-1.49-1.91-2.18-3.23-2.18-4.72,0-2.31,1.62-4.65,4.79-4.65s4.65,2.21,4.65,4.42c0,1.02-.3,2.47-2.05,3.99-.56.5-.36.23-1.78,1.42l4.59,5.91c1.19-1.25,1.88-2.05,2.51-2.9l1.78,1.49ZM529.15,507.34c-1.62.99-2.47,1.72-3.1,2.28-.63.56-1.55,1.45-1.55,3.17,0,2.18,1.62,3.89,3.89,3.89s4.82-2.24,5.64-3.04l-4.88-6.3ZM529.74,504.2l1.45-1.12c1.25-.99,1.49-1.78,1.49-2.54,0-1.55-1.22-2.28-2.38-2.28-1.35,0-2.44,1.02-2.44,2.41,0,.96.46,1.58.89,2.18l.99,1.35Z"/>
    <path class="st1" d="M568.42,498.82h-7.59v6.5h7.33v2.31h-7.33v10.89h-2.44v-22.01h10.03v2.31Z"/>
    <path class="st1" d="M574.82,507.54c0-6.57,5.12-11.39,11.45-11.39s11.45,4.82,11.45,11.39-5.08,11.39-11.45,11.39-11.45-4.85-11.45-11.39ZM577.32,507.54c0,5.05,3.99,9.08,8.94,9.08s8.94-4.03,8.94-9.08-3.99-9.08-8.94-9.08-8.94,4.03-8.94,9.08Z"/>
    <path class="st1" d="M608.84,509.05l-7.23-12.54h2.84l5.61,9.84,5.68-9.84h2.84l-7.29,12.54v9.47h-2.44v-9.47Z"/>
    <path class="st1" d="M636.4,498.82h-8.98v6.54h8.71v2.31h-8.71v8.55h8.98v2.31h-11.42v-22.01h11.42v2.31Z"/>
    <path class="st1" d="M647.72,496.51c1.49,0,3.7.1,5.35,1.22,1.29.86,2.41,2.54,2.41,4.88,0,3.37-2.21,5.84-5.54,6.07l7,9.83h-2.97l-6.7-9.64h-.63v9.64h-2.44v-22.01h3.53ZM646.63,506.71h1.55c3.04,0,4.85-1.45,4.85-4.03,0-1.22-.36-2.44-1.75-3.23-.99-.56-2.11-.63-3.17-.63h-1.49v7.89Z"/>
    <path class="st1" d="M673.89,500.87c-.3-.59-.79-1.25-1.29-1.65-.43-.33-1.22-.76-2.48-.76-2.18,0-3.7,1.35-3.7,3.4,0,.86.23,1.35.83,1.91.66.66,1.49,1.02,2.31,1.39l2.11.92c1.29.56,2.47,1.15,3.4,2.08,1.12,1.12,1.58,2.41,1.58,3.99,0,4.06-3,6.77-6.96,6.77-1.45,0-3.27-.3-4.79-1.78-1.09-1.06-1.75-2.58-2.05-3.89l2.38-.66c.17,1.15.69,2.14,1.32,2.8.96.96,2.05,1.22,3.17,1.22,3,0,4.42-2.15,4.42-4.36,0-.99-.3-1.85-1.09-2.58-.63-.59-1.49-.99-2.64-1.52l-1.98-.92c-.86-.4-1.95-.86-2.94-1.81-.96-.92-1.52-1.95-1.52-3.6,0-3.4,2.61-5.68,6.17-5.68,1.35,0,2.44.26,3.53.99.89.59,1.65,1.48,2.15,2.44l-1.95,1.29Z"/>
    <path class="st1" d="M695.43,496.51h4.49c2.21,0,5.35.23,8.12,2.58,2.01,1.68,3.76,4.49,3.76,8.45,0,4.62-2.28,7.1-3.86,8.45-2.01,1.72-4.13,2.54-8.05,2.54h-4.46v-22.01ZM697.87,516.22h2.15c1.75,0,4.16-.2,6.3-1.98,1.65-1.39,2.97-3.56,2.97-6.7,0-5.28-3.7-8.71-9.27-8.71h-2.15v17.39Z"/>
    <path class="st1" d="M731.01,498.82h-8.98v6.54h8.71v2.31h-8.71v8.55h8.98v2.31h-11.42v-22.01h11.42v2.31Z"/>
    <path class="st1" d="M754.2,496.51v15.84c0,1.78-.03,3.8-1.35,5.18-.76.83-1.88,1.39-3.5,1.39s-2.94-.5-3.93-1.62l1.35-1.92c.73.79,1.68,1.22,2.51,1.22.66,0,1.25-.23,1.65-.63.83-.83.83-2.21.83-3.56v-15.91h2.44Z"/>
    <path class="st1" d="M761.99,507.54c0-6.57,5.12-11.39,11.45-11.39s11.45,4.82,11.45,11.39-5.08,11.39-11.45,11.39-11.45-4.85-11.45-11.39ZM764.5,507.54c0,5.05,3.99,9.08,8.94,9.08s8.94-4.03,8.94-9.08-3.99-9.08-8.94-9.08-8.94,4.03-8.94,9.08Z"/>
    <path class="st1" d="M795.12,510.01c0,1.85,0,3.86,1.75,5.35.89.76,2.41,1.25,3.63,1.25s2.74-.5,3.63-1.25c1.75-1.48,1.75-3.5,1.75-5.35v-13.5h2.44v14.16c0,1.85-.2,3.63-1.39,5.28-1.32,1.82-3.63,2.97-6.44,2.97s-5.12-1.16-6.44-2.97c-1.19-1.65-1.39-3.43-1.39-5.28v-14.16h2.44v13.5Z"/>
    <path class="st1" d="M820.83,496.51c1.49,0,3.7.1,5.35,1.22,1.29.86,2.41,2.54,2.41,4.88,0,3.37-2.21,5.84-5.54,6.07l7,9.83h-2.97l-6.7-9.64h-.63v9.64h-2.44v-22.01h3.53ZM819.74,506.71h1.55c3.04,0,4.85-1.45,4.85-4.03,0-1.22-.36-2.44-1.75-3.23-.99-.56-2.11-.63-3.17-.63h-1.49v7.89Z"/>
  </g>
  <g>
    <path class="st2" d="M887.97,325.37h0c-1.21-1.21-1.38-3.1-.42-4.51l37.45-54.69c1.25-1.83,3.86-2.07,5.43-.5l17.78,17.78c1.58,1.58,1.32,4.21-.54,5.45l-55.23,36.91c-1.41.94-3.28.75-4.47-.44Z"/>
    <path class="st2" d="M897.13,317.29h0c1.21,1.21,1.38,3.1.42,4.51l-37.45,54.69c-1.25,1.83-3.86,2.07-5.43.5l-17.78-17.78c-1.58-1.58-1.32-4.21.54-5.45l55.23-36.91c1.41-.94,3.28-.75,4.47.44Z"/>
    <path class="st2" d="M888.51,316.75h0c1.21-1.21,3.1-1.38,4.51-.42l54.69,37.45c1.83,1.25,2.07,3.86.5,5.43l-17.78,17.78c-1.58,1.58-4.21,1.32-5.45-.54l-36.91-55.23c-.94-1.41-.75-3.28.44-4.47Z"/>
    <path class="st2" d="M896.59,325.91h0c-1.21,1.21-3.1,1.38-4.51.42l-54.69-37.45c-1.83-1.25-2.07-3.86-.5-5.43l17.78-17.78c1.58-1.58,4.21-1.32,5.45.54l36.91,55.23c.94,1.41.75,3.28-.44,4.47Z"/>
  </g>
  <path class="st0" d="M892.39,311.57c-5.14,0-9.48,4.43-9.48,9.67,0,5.62,4.08,9.86,9.48,9.86s9.86-4.52,9.86-9.86-4.24-9.67-9.86-9.67Z"/>
</svg>